<?xml version="1.0" encoding="UTF-8" standalone="no"?><!-- Generator: Gravit.io --><svg xmlns="http://www.w3.org/2000/svg" xmlns:xlink="http://www.w3.org/1999/xlink" style="isolation:isolate" viewBox="0 0 16 16" width="16pt" height="16pt"><defs><clipPath id="_clipPath_2J77Km7L3OD8iq74gh4uEhNJXMUoqKrC"><rect width="16" height="16"/></clipPath></defs><g clip-path="url(#_clipPath_2J77Km7L3OD8iq74gh4uEhNJXMUoqKrC)"><path d=" M 14.077 2.017 C 12.72 2.163 11.846 2.893 10.789 3.504 C 10.739 3.533 10.718 3.529 10.656 3.512 C 10.497 3.469 10.323 3.411 10.157 3.365 L 9.268 3.229 C 8.736 3.162 7.865 3.156 7.333 3.223 C 6.834 3.3 6.376 3.355 5.895 3.509 C 5.757 3.554 5.721 3.51 5.622 3.432 C 5.557 3.422 5.6 3.435 5.585 3.402 C 5.532 3.392 5.01 3.078 4.987 3.041 C 4.154 2.56 2.812 2.118 1.867 2.048 C 1.68 2.034 1.513 2.03 1.352 2.095 C 1.198 2.157 1.123 2.23 1.032 2.332 C 0.491 3.333 1.163 5.059 1.563 6.065 C 1.65 6.284 1.731 6.497 1.819 6.713 C 1.845 6.776 1.857 6.8 1.874 6.871 C 1.513 7.57 -1.217 14.163 8.622 13.997 C 13.216 13.92 15.697 11.677 14.812 7.755 L 14.657 7.206 C 14.607 7.111 14.71 6.93 14.746 6.823 C 15.132 5.59 15.227 4.451 15.141 3.158 C 15.101 2.563 14.935 2.038 14.345 2 L 14.077 2.017 L 14.077 2.017 Z  M 7.998 10.701 C 7.991 10.719 7.981 10.741 7.968 10.765 C 7.916 10.868 7.818 11.027 7.638 11.188 C 7.457 11.349 7.195 11.511 6.844 11.662 C 6.493 11.813 6.054 11.953 5.633 12.005 C 5.213 12.057 4.811 12.022 4.531 11.952 C 4.251 11.881 4.092 11.776 3.964 11.677 C 3.49 11.314 3.409 10.881 3.704 10.333 C 3.817 10.124 3.992 9.975 4.137 9.934 C 4.283 9.894 4.399 9.963 4.416 10.013 C 4.434 10.062 4.352 10.09 4.256 10.137 C 4.161 10.183 4.051 10.248 3.996 10.373 C 3.941 10.499 3.941 10.687 3.996 10.811 C 4.05 10.935 4.16 10.995 4.315 10.999 C 4.471 11.003 4.673 10.951 4.839 10.683 C 5.006 10.415 5.137 9.932 5.32 9.568 C 5.502 9.205 5.736 8.961 5.956 8.793 C 6.177 8.626 6.383 8.535 6.68 8.537 C 6.976 8.539 7.362 8.635 7.595 8.77 C 7.828 8.904 7.908 9.078 7.987 9.252 C 8.064 9.077 8.141 8.902 8.372 8.764 C 8.603 8.625 8.988 8.524 9.284 8.517 C 9.58 8.511 9.788 8.598 10.011 8.763 C 10.234 8.927 10.471 9.167 10.659 9.528 C 10.847 9.888 10.986 10.37 11.157 10.635 C 11.327 10.9 11.53 10.95 11.685 10.944 C 11.841 10.937 11.949 10.875 12.002 10.75 C 12.055 10.625 12.052 10.438 11.995 10.313 C 11.938 10.188 11.828 10.125 11.731 10.08 C 11.635 10.035 11.553 10.008 11.569 9.958 C 11.586 9.909 11.701 9.838 11.847 9.876 C 11.994 9.914 12.171 10.061 12.286 10.268 C 12.59 10.813 12.516 11.246 12.047 11.616 C 11.92 11.716 11.763 11.825 11.484 11.899 C 11.205 11.974 10.804 12.015 10.383 11.969 C 9.962 11.923 9.52 11.79 9.167 11.644 C 8.814 11.499 8.549 11.34 8.366 11.182 C 8.183 11.024 8.083 10.867 8.029 10.765 C 8.016 10.74 8.006 10.719 7.998 10.701 L 7.998 10.701 Z " fill-rule="evenodd" fill="rgb(255,221,87)"/></g></svg>